<?xml version="1.0" encoding="utf-8"?>
<!-- Generator: Adobe Illustrator 19.0.0, SVG Export Plug-In . SVG Version: 6.00 Build 0)  -->
<svg version="1.1" id="layer" xmlns="http://www.w3.org/2000/svg" xmlns:xlink="http://www.w3.org/1999/xlink" x="0px" y="0px"
	 viewBox="-153 -46 652 652" style="enable-background:new -153 -46 652 652;" xml:space="preserve">
<style type="text/css">
	.st0{fill:#6F8F9D;}
	.st1{fill:#547FB4;}
</style>
<path class="st0" d="M96.6,282c-1,0-1.4-1.4-0.3-2.7c3.6-2.6,5-3.4,5.2-3.5C103.9,275.9,99.4,282,96.6,282L96.6,282z M214.8,269.4
	c-2.1-1.8-4.6-1.2-4.6-1.2s0.4,0.6-1.3,2c-0.1,0.1-0.5,0.5-0.6,0.5c-6.7,5.5-15.7,9.8-25,11.6c3-1.8,10.3-9,5.3-12.6
	c-2.9-2.1-8-1.2-12.8,1.2c0.6-0.9,1.9-2.8,1.4-5.1c-0.5-2.3-5-3-7.4-2.1c-0.1,2.4-0.5,3.7-0.9,4.2c-10.8,9.5-25,15.2-26.2,14
	c-0.9-0.9,2.2-5.2,3.3-6.7c0.9-1.2,0.9-2.7,0.3-3.9c-1-1.8-2.8-1.9-6.1-1.1c-4.6,0.8-7.9-1.2-10.7-5.4c-1.4-2.1-4.7-1.7-6.4-0.5
	c0.4,1.3,0.3,3-0.1,4.4c-2.9,6.6-11.4,6.7-14.7,4.4c-0.5-1.4-1.7-3.9-4.1-4.3c-7.6-1.2-10.2,3.5-11.4,4.9
	c-2.7,3.1-20.9,10.7-25.2,7.2c-3.1-2.6-0.5-11.4,5.5-20.7c8.9-14,12.9-13.9,14.3-12.5c0.9,0.9,1.7,2.8,0,6.3
	c-0.1,0.3-0.3,0.5-0.4,0.7c-3.1,5-4.3,4.8-4.3,4.8c-1,3,0.3,4.7,1.2,5.4c1,1,2.5,0.7,3,0.5c1.5-0.5,2.4-1.8,3.3-3.2
	c4.3-6.7,7-17.3-0.1-21.1c-5-2.7-13.5,1-22.9,16.2c-8.3,13.5-10.7,23.8-4.7,28.8c7.3,6.1,22.7-1.6,27.7-3.9c-0.1,1,0.3,6.4,5.3,6.2
	c6.5-0.4,10.5-6.3,12.2-9.1c2.5,1.5,13.5,3.2,20.2-6.9c0.7,0.6,5,3.8,10.4,3.8c-1.9,3.5-4.5,8.4-0.9,11.3c5.1,4,22.6-6.3,27.7-9.3
	c-2.9,5.3-7.9,17.2-13,27.7c-2.1,4.4-5,10.2-1.9,11.8c2.4,1.2,6,0,6.5-3.2c0.7-4.1,4.7-15.5,7.5-21.7c5.3-11.8,10.1-18,18.2-18
	c-0.5,1-0.8,2.2-3.5,4.9c-2.9,2.9-6.2,2.8-6,5.9c0.1,1.9,2,2.4,2.5,2.5c4.2,1.1,15.9-2.3,20.5-4c5.3-2,12.7-5.5,18.1-8.9
	C216.7,273.5,216.9,271.2,214.8,269.4L214.8,269.4z M32.6,257c-4.5,0.3-9.9,1.8-11.9,6.3c-1.7,3.7-0.4,7.7,3.1,12.1
	c2.2,2.7,4.3,5.4,4.9,6c-1.6,0.3-5.1,0.2-8.7-0.4c0,0,0,0,0,0c-0.8-0.1-1.6-0.3-2.4-0.5c-2-0.6-2.5-1.4-2.5-1.4l-0.3,0.2v0L15,279
	c-1.3,0.2-2.5,1.1-3.3,2.2c-0.8,1-1.6,3-0.9,4c0.6,0.8,1.8,1.3,4,1.3c5,0.2,14.3,1.6,16.2,1.8c2.7,0.3,4.4-1.9,5-3.2
	c0.7-1.7,0-3.6-0.9-4.6c-4.4-5.1-10.6-10.7-8.4-15.3c1-2.1,6-1.7,7.6-1.2c3.5,1,5.2-0.2,6-2.6C40.9,259.9,40,256.4,32.6,257
	 M-58.4,262.8c0.6,0.6-0.7,2-1.9,2.8c-3.2,2.1-6.5,3.3-8.8,4.2C-66.6,264.6-59.3,261.6-58.4,262.8z M16.6,274.6c1.8-1,2.5-3,1.1-4.7
	c-1.4-1.7-4.2-1.6-5.4-0.8c-1,0.6-2.3,1.3-5.8,1.5c-3.4,0.2-4.7-1.3-6.9-1.3c-2.4,0-3.4,1.7-6.3,5.4c-1.5,1.9-4.9,6.4-6.4,6.4
	c-1.3,0-1.8-3.7-1.8-8.6c0-2.2-1-4.1-3.5-3.9c-2.1,0.1-2.5,2.9-3.6,4.2c-3.3,3.9-6,7.6-7.3,7.6c-1.7,0-2.3-3.7-2.3-6.5
	c0,0,0.5-4.4-3.5-5.2c-1.7-0.3-3.6,0.6-3.6,0.6c0.2,0.3,0.2,0.7,0.2,1c-0.5,1.9-4,4.5-4,4.5c-3.7,2.7-11.2,7.8-17.9,8.1
	c-7.9,0.4-9.2-4.2-9.5-6c6.8-2.5,11.3-5.3,14.2-7.6c3.1-2.4,5.1-5.1,5-7.7c-0.2-3.5-3.4-4.8-6-4.8c-5.5,0-14.5,2.4-18.9,14.4
	c-0.9,0.3-3.2,0.3-4.4,0c-1.6-0.4-1.6-1.1-1.6-1.1c-1.5,0.4-2.1,1.1-2.6,2.4c-0.8,2.1,0.3,3.8,2,4.8c1.2,0.7,3.2,1.1,5.9,0.8
	c0.4,3.6,2.8,10.7,15.7,10.2c10.2-0.4,22.2-9,23.3-9.7c0.5,2.1,1.9,9.7,6.2,9.7c5.2,0,10.6-8.1,10.6-8.1s1.4,8.1,6.6,8.1
	c4.4,0,9.9-7.1,11.2-8.7c1.1-1.4,3.4-4,4.6-4c1.2-0.2,3.5,1.8,10.3,0.5C12,276.1,15.1,275.4,16.6,274.6z M-66.8,236.2
	c0.5-1.2,0.1-2.8-0.7-3.3c-2.6-1.9-4.9-0.9-6.6,1.1c-2,2.2-4.7,7.1-5.8,8.9c-10.3,16.7-18.2,34.5-18.2,34.5s-2.7-8.3-3.1-14.9
	c-0.4-6.2-0.6-12.1-0.9-15c-0.1-1.2-0.6-3-2.6-3.6c-1.6-0.5-3.8-0.7-5.4-0.1c-0.1,2-0.2,2.9-1,5.3c-0.8,2.3-6.1,12.7-7,14.3
	c-4.6,8.2-10.7,18.5-11.1,19.1c-1.2,2.3-3,5.4,0,6.6c3,1.1,5.5,0.5,6.8-1.4c0.2-0.4,0.6-1,0.6-1s-0.9-0.7,1-5
	c0.5-1.1,1.2-2.5,1.9-3.9c0.1-0.3,0.3-0.5,0.4-0.8c0.2-0.4,0.4-0.7,0.5-1.1c3-6,7.1-13.7,10.7-20.5c0,3.9,0.3,8.8,0.8,12.4
	c0.8,6.9,2.5,9.8,3.1,15.3c-0.1,3.7,0.2,4.4,3,5.1c2.5,0.7,4,0,5-2.3c3.7-9.3,14.2-30.5,23.2-42.1C-71.4,242.4-67.8,239-66.8,236.2"
	/>
<path class="st1" d="M246.2,271.9l9.6-24.8l10.1,24.8H246.2L246.2,271.9z M254,243.3l-18.1,44.3h4.2l4.8-12.4h22.4l5,12.4h4.7
	l-18.8-44.3H254L254,243.3z M307.2,256.6h-3.7v16.2c0,6.1-2.3,12-9.3,12c-6.6,0-7.9-4.9-7.9-10.7v-17.5h-3.7v19
	c0,7.8,2.8,12.3,11,12.3c4.5,0,7.5-1.6,10.1-5.3l0.1,5h3.7c-0.1-3.1-0.2-6.2-0.2-9.3L307.2,256.6 M319.6,264.1c0-3.7,4-5.2,7.2-5.2
	c4.2,0,6.6,1.8,6.8,6.1h3.7c-0.2-6.4-4.7-9.1-10.7-9.1c-5.3,0-10.8,2.6-10.8,8.6c0,11,18.5,6.5,18.5,14.8c0,4.2-4.3,6.1-7.9,6.1
	c-4.5,0-7.7-2.2-7.7-6.9h-3.7c0,6.8,4.8,9.7,11.2,9.7c5.9,0,11.7-2.8,11.7-9.4C338,267.8,319.6,272.2,319.6,264.1 M351.6,279.6
	v-20.2h6.9v-2.8h-6.9v-8l-3.7,1.7v6.4h-6.1v2.8h6.1v21.8c0,4.5,2.1,6.6,6.6,6.6c1.5,0,2.9-0.1,4.4-0.3v-3.2
	c-0.9,0.1-1.8,0.4-2.8,0.4C352.1,284.7,351.6,283.1,351.6,279.6 M370.6,261.5l-0.2-4.8h-3.7c-0.1,3,0.2,6.1,0.2,9.1v21.9h3.7v-17.5
	c0-6.1,2.1-10,8.7-10c0.9,0,1.7,0.1,2.5,0.2v-3.7c-0.6-0.1-1.2-0.1-1.7-0.1C375.9,256.5,372.9,257.9,370.6,261.5 M395.2,285.6
	c-3.9,0-7.7-2.2-7.7-6.5c0-7.1,8.8-7.4,14-7.4c1,0,2,0.1,3.1,0.1C404.6,278.6,404.1,285.6,395.2,285.6z M408.2,266.9
	c0-7.7-3.6-10.9-11.2-10.9c-5.5,0-10.8,2.3-10.9,8.5h3.7c0.5-4.4,3.2-5.7,7.2-5.7c5.5,0,7.5,2.7,7.5,8c0,0.7,0,1.4-0.1,2.1h-1.6
	c-7.6,0-19.1,0.3-19.1,10.2c0,6.3,5.2,9.1,10.8,9.1c4.6,0,7.8-1.2,10.4-5.1c0.2,1.5,0.4,3,0.5,4.5h3.4c-0.4-3.9-0.6-7.6-0.6-11.5
	V266.9z M417.9,287.6h3.7v-44.3h-3.7V287.6z M431.6,247.9h4.5v-4.7h-4.5V247.9z M432,287.6h3.7v-31H432V287.6z M455.5,285.6
	c-3.9,0-7.7-2.2-7.7-6.5c0-7.1,8.8-7.4,14-7.4c1,0,2,0.1,3.1,0.1C464.8,278.6,464.3,285.6,455.5,285.6z M468.5,276.1v-9.2
	c0-7.7-3.6-10.9-11.2-10.9c-5.5,0-10.8,2.3-10.9,8.5h3.7c0.5-4.4,3.2-5.7,7.2-5.7c5.5,0,7.5,2.7,7.5,8c0,0.7,0,1.4-0.1,2.1h-1.6
	c-7.6,0-19.1,0.3-19.1,10.2c0,6.3,5.2,9.1,10.8,9.1c4.6,0,7.8-1.2,10.4-5.1c0.2,1.5,0.4,3,0.5,4.5h3.4
	C468.6,283.7,468.5,280,468.5,276.1z"/>
</svg>
